<svg width="1920" height="792" viewBox="0 0 1920 792" fill="none" xmlns="http://www.w3.org/2000/svg">
<path d="M9.5 10.5C7.5 3 1.66667 0.5 0 0V792H1920V117.5C1862.8 139.5 1847.5 188 1847 209.5C1790.6 182.7 1738.5 230.333 1719.5 257.5C1624.3 189.5 1541.83 215.833 1512.5 237.5C1331.3 180.3 1253.67 297 1237.5 362.5C1189.1 351.7 1155 382 1144 398.5C1126.4 371.7 1097 372.333 1084.5 376C1069.3 280 995.167 284.667 960 299C902 149.719 753.167 161.833 683 227.5C585.4 147.1 532.667 222.333 518.5 270C481.7 261.2 455.5 282 447 293.5C429.8 263.1 396.5 254.833 382 254.5C362.4 195.7 314.167 185 292.5 187C257.7 84.2 183.333 69.8333 150.5 75.5C104.9 -5.7 37.5 -1.66667 9.5 10.5Z" fill="#E4F0FF"/>
</svg>
