<svg width="1920" height="635" viewBox="0 0 1920 635" fill="none" xmlns="http://www.w3.org/2000/svg">
<path d="M184 56.5405C112.8 -37.9204 31 6.96367 -1 41.2133V635H1956V13.3973C1928.4 12.0349 1909.17 29.1029 1903 37.8073C1815.8 -41.667 1759 23.237 1741.5 65.6233C1662.3 29.2922 1616.17 65.6233 1603 88.3302C1487 53.8157 1449 137.529 1444.5 183.699C1361.3 195.507 1353.83 269.986 1360.5 305.749C1302.5 289.4 1268 312.561 1258 326.185C1230.4 276.684 1191.5 276.798 1175.5 283.042C1109.5 189.944 1032.67 227.978 1002.5 258.632C886.5 135.561 806.5 238.764 781 305.749C705.8 248.982 658.333 295.72 644 326.185C596.4 293.033 558.167 312.372 545 326.185C539.4 305.295 514.333 288.719 502.5 283.042C500.1 184.04 437.5 165.723 406.5 168.94C362.9 -6.35776 240 20.9663 184 56.5405Z" fill="white"/>
</svg>
