<svg width="1920" height="757" viewBox="0 0 1920 757" fill="none" xmlns="http://www.w3.org/2000/svg">
<path d="M58 34.7806C40.8 20.7806 13 19.7806 0 21.7806V757H1920L1919 6.78061C1857 -15.2194 1812.83 30.2806 1798.5 55.7806C1712.5 18.9806 1643 82.4473 1619 118.781C1461.8 103.981 1421.5 218.281 1421 277.281C1380.6 251.681 1335.83 274.947 1318.5 289.781C1292.9 251.381 1253.83 247.447 1237.5 250.281C1175.1 177.481 1094.83 204.947 1062.5 227.781C944.5 122.581 869.333 213.281 846.5 271.781C780.9 225.781 726.5 264.614 707.5 289.781C665.5 264.181 626 279.114 611.5 289.781C600.3 268.181 576.5 255.447 566 251.781C564.4 167.381 504.667 150.281 475 152.281C425.4 -4.51939 301.667 15.2806 246 44.7806C158.4 -31.2194 84.1667 6.44728 58 34.7806Z" fill="#F5F8FC" fill-opacity="0.4"/>
</svg>
